<?xml version="1.0" encoding="utf-8"?>
<!-- Generator: Adobe Illustrator 26.4.1, SVG Export Plug-In . SVG Version: 6.00 Build 0)  -->
<svg version="1.1" id="Layer_1" xmlns="http://www.w3.org/2000/svg" xmlns:xlink="http://www.w3.org/1999/xlink" x="0px" y="0px"
	 viewBox="0 0 498.4 312.9" style="enable-background:new 0 0 498.4 312.9;" xml:space="preserve">
<style type="text/css">
	.st0{fill:#A5A5A5;}
	.st1{fill:#444444;}
</style>
<g>
	<g>
		<path class="st0" d="M130.5,69.8v87.6h-27.6V70.9c0-26.9-14-39.9-35.6-39.9c-23.3,0-39.7,13.4-39.7,42.7v83.8H0V8.9h26.7v18.7
			C37.3,13.4,53.5,6.8,73.8,6.8C109.1,6.8,130.5,29.1,130.5,69.8z"/>
	</g>
	<g>
		<path class="st0" d="M233.7,124.1l14,16.3c-10,12.1-25.9,18.5-45.4,18.5c-38,0-62.6-24.4-62.6-58.1s24.6-57.9,58.4-57.9
			c31.6,0,57.1,21.2,57.3,56.7l-86.8,17c5.5,12.9,17.8,19.9,34.4,19.9C215.7,136.4,225.5,132.4,233.7,124.1z M165.4,99.3v0.2
			l64.1-12.3c-3.6-13.8-15.5-23.1-31.4-23.1C178.8,64.1,165.4,77.7,165.4,99.3z"/>
	</g>
	<g>
		<path class="st0" d="M332.3,157.4l-29.1-39.3l-29.3,39.3h-29.3l44.1-57.5l-42.2-55.8h29.5l27.8,37.1l27.8-37.1h28.6l-42.4,55.4
			l44.4,57.9H332.3z"/>
	</g>
	<g>
		<path class="st0" d="M468.3,44.1v113.3H443v-14.6c-8.9,10.8-22.1,16.1-37.6,16.1c-33.1,0-57.3-22.9-57.3-58.1s24.2-57.9,57.3-57.9
			c14.4,0,27.2,4.9,36.3,15.1V44.1H468.3z M442.2,100.8c0-21.6-14.4-35.4-33.7-35.4c-19.1,0-33.5,13.8-33.5,35.4
			s14.4,35.4,33.5,35.4C427.7,136.2,442.2,122.4,442.2,100.8z"/>
	</g>
</g>
<g>
	<path class="st0" d="M240.6,206.6c0,24-17.4,38.6-46.1,38.6h-30.3v35.7h-11.9V167.9h42.3C223.1,167.9,240.6,182.4,240.6,206.6z
		 M228.6,206.6c0-18.1-11.9-28.4-34.5-28.4h-30v56.5h30C216.7,234.7,228.6,224.4,228.6,206.6z"/>
	<path class="st0" d="M251.1,257.3v-96.2h11.5v95.2c0,10,4.7,15.5,14.2,15.5c3.1,0,6-0.6,7.7-1.5l0.8,9.5c-3.2,1.1-6.9,1.8-10.3,1.8
		C259.4,281.6,251.1,272.4,251.1,257.3z"/>
	<path class="st0" d="M362.2,196v84.9h-11v-16.8c-6.9,11.5-18.7,17.6-32.7,17.6c-24.2,0-42.3-17.6-42.3-43.2s18.1-43.1,42.3-43.1
		c13.6,0,25.2,5.8,32.3,16.8V196H362.2z M350.9,238.4c0-19.8-13.6-33.1-31.5-33.1c-18.1,0-31.6,13.2-31.6,33.1s13.6,33.1,31.6,33.1
		C337.4,271.5,350.9,258.2,350.9,238.4z"/>
	<path class="st0" d="M456.1,196v74.5c0,29.2-13.4,42.4-39.5,42.4c-14.5,0-28.9-4.7-37.1-13.1l5.8-8.7c7.3,7.3,18.4,11.6,30.8,11.6
		c19.7,0,28.6-9.8,28.6-30.8v-9.8c-6,9.8-16.8,15.5-30,15.5c-21.6,0-35.8-12.1-35.8-36.5V196h11.5v44c0,18.1,9.4,27.3,25.5,27.3
		c17.7,0,28.9-11.5,28.9-30.8V196H456.1z"/>
</g>
<g>
	<polygon class="st1" points="182.4,209.6 182.4,195.2 194.9,202.4 207.3,209.6 194.9,216.7 182.4,223.9 	"/>
</g>
</svg>
